Coordinates
version=1
nRows=14
nColumns=36
inDegrees=yes

Units are S.I. units (second, meters, Newtons, ...)
If the header above contains a line with 'inDegrees', this indicates whether rotational values are in degrees (yes) or radians (no).

endheader
time	pelvis_tilt	pelvis_list	pelvis_rotation	pelvis_tx	pelvis_ty	pelvis_tz	hip_flexion_r	hip_adduction_r	hip_rotation_r	knee_angle_r	knee_angle_r_beta	ankle_angle_r	subtalar_angle_r	mtp_angle_r	hip_flexion_l	hip_adduction_l	hip_rotation_l	knee_angle_l	knee_angle_l_beta	ankle_angle_l	subtalar_angle_l	mtp_angle_l	lumbar_extension	lumbar_bending	lumbar_rotation	arm_flex_r	arm_add_r	arm_rot_r	elbow_flex_r	pro_sup_r	arm_flex_l	arm_add_l	arm_rot_l	elbow_flex_l	pro_sup_l
      1.11000000	    -11.31264305	      2.38117512	      5.20352985	     -0.47608230	      1.10034404	     -0.56467039	     33.20571112	     -5.13353681	     -1.20267347	     12.38997422	      0.21624584	    -26.14402400	     -9.33032129	     -6.72305892	     40.16750859	      2.01966036	      6.90265228	     33.79255328	      0.58979132	    -19.26900073	     -8.88597781	     -6.72305892	    -21.75200265	     -3.90366369	     -7.79714043	    -38.35716679	    -39.22646774	    -44.71561210	     99.11779895	    111.84066535	    -22.57046022	    -17.71098802	    -11.68053463	     98.91785163	    102.84404678
      1.12000000	    -10.71538979	      2.44029311	      5.16642360	     -0.46367208	      1.07881501	     -0.56371947	     32.57054574	     -4.99854316	     -1.26675616	     12.30852796	      0.21482434	    -26.93776213	     -9.71333221	     -6.73025242	     39.30896393	      1.71504195	      6.87318040	     31.32703848	      0.54675997	    -20.06180025	     -7.92755129	     -6.73025242	    -21.87877697	     -4.13232774	     -8.22166513	    -39.88402706	    -39.05165034	    -47.35755942	    100.36935833	    112.00316271	    -23.60148785	    -17.29718807	    -13.07159268	     99.82670807	    102.93125909
      1.13000000	    -10.14560191	      2.36364618	      5.06545993	     -0.45157399	      1.05638912	     -0.56253004	     32.09754096	     -4.64903045	     -0.88125352	     12.64487502	      0.22069470	    -28.22318613	    -10.82649006	     -6.77877039	     38.60231596	      1.30715649	      7.06068773	     29.26271618	      0.51073075	    -20.22822413	     -7.08561173	     -6.77877039	    -21.96316464	     -4.11713534	     -7.31982944	    -42.68724198	    -37.58775126	    -51.38797533	    102.34459566	    111.82490326	    -22.86047465	    -17.55774097	    -12.47723135	     99.72000390	    102.48646120
      1.14000000	     -9.46351730	      2.51394182	      5.03357004	     -0.43979575	      1.03331016	     -0.56147150	     31.78893382	     -4.61116550	     -0.71748512	     13.70712025	      0.23923438	    -29.06283729	    -11.34308453	     -6.79780660	     37.94430112	      1.17715240	      7.16939656	     27.73933545	      0.48414274	    -20.05423919	     -6.49154104	     -6.79780660	    -22.30382259	     -4.42826361	     -7.61017213	    -43.32289928	    -36.97495648	    -53.04333115	    103.85657920	    111.81171661	    -22.63470281	    -17.21797359	    -13.26453896	    100.06638841	    102.17983961
      1.15000000	     -8.78633920	      2.66711283	      4.97961136	     -0.42834964	      1.00922788	     -0.56028632	     31.62163882	     -4.49759512	      0.10817639	     14.97398289	      0.26134530	    -30.95520116	    -12.50873561	     -6.83053937	     37.68635700	      1.00242923	      6.97771303	     27.20187115	      0.47476221	    -19.35836174	     -5.62194165	     -6.83053937	    -22.66456495	     -4.73712389	     -7.43138955	    -43.89596280	    -35.92408438	    -54.81798828	    105.49456930	    111.98112149	    -21.46697320	    -17.19882201	    -13.10604556	     99.99055568	    101.72252569
      1.16000000	     -8.22672349	      2.63424602	      4.97724285	     -0.41738461	      0.98396506	     -0.55904927	     31.86956285	     -4.19136895	      0.87571441	     17.08495833	      0.29818878	    -30.47668095	    -13.27182380	     -6.86021652	     37.98376545	      0.73241714	      6.83964540	     27.57132615	      0.48121042	    -19.28422532	     -4.82153787	     -6.86021652	    -22.98032447	     -4.88483238	     -7.65472582	    -43.19033286	    -35.33594532	    -55.69124768	    106.95215827	    111.02207315	    -20.31681714	    -16.92879679	    -13.34068879	    100.02880638	    100.87979647
      1.17000000	     -7.79554739	      2.21669805	      5.00113484	     -0.40719936	      0.95741583	     -0.55729837	     32.63271155	     -3.28711806	      1.33074423	     20.93839061	      0.36544386	    -24.48280469	    -16.20372691	     -6.90677321	     38.88931319	      0.10217686	      6.74292746	     28.68870899	      0.50071243	    -20.02022032	     -3.77517048	     -6.90677321	    -23.21061786	     -4.69375137	     -7.70639361	    -41.88176854	    -34.85355217	    -56.01704096	    108.43486010	    108.89931687	    -18.65265301	    -16.78769897	    -13.15304246	    100.00261288	     99.34912572
      1.18000000	     -7.44649281	      2.35433643	      4.81623100	     -0.39782108	      0.93018593	     -0.55546773	     34.40681726	     -2.86207648	      0.87595907	     27.48318354	      0.47967204	    -11.84722848	    -18.30733421	     -6.99011140	     39.78323983	      0.05202823	      6.61235839	     30.16821412	      0.52653467	    -20.53673897	     -4.86509307	     -6.99011140	    -23.50222599	     -5.08974347	     -7.33333620	    -40.66634129	    -33.94538435	    -55.96248371	    110.25258840	    106.42188128	    -16.10892308	    -16.98612408	    -12.20966296	     99.61965095	     97.64708538
      1.19000000	     -7.59787510	      2.66919228	      4.31531964	     -0.38996639	      0.90235921	     -0.55358243	     37.82447274	     -2.48217962	      0.86335831	     35.54091525	      0.62030599	     -0.44870699	    -20.05740533	     -7.12722582	     41.53181157	      0.14643510	      6.23450182	     33.66863276	      0.58762850	    -15.52637128	     -6.93545245	     -7.12722582	    -23.46921045	     -5.83966477	     -7.22583987	    -38.25721220	    -33.49986005	    -54.27900640	    111.45654896	    108.03632226	    -13.51548233	    -16.87909415	    -11.79093619	     98.83698151	     98.74401333
      1.20000000	     -8.72990290	      2.04277076	      3.38746800	     -0.38480792	      0.87341564	     -0.55144705	     43.71064095	     -0.90272648	      1.56870521	     44.63315269	      0.77899547	      4.73812465	    -22.57903258	     -7.18973519	     45.37282092	     -0.75712393	      6.11570786	     40.20169466	      0.70165194	     -4.70778911	     -8.01798059	     -7.18973519	    -22.54280054	     -5.74711648	     -6.64043707	    -35.08499876	    -33.64948992	    -51.36129285	    112.58256585	    106.09267677	    -10.62064185	    -16.43977193	    -11.26397100	     98.07302773	     96.67764823
      1.21000000	    -10.09402824	      0.28646338	      2.36666471	     -0.38204078	      0.84514802	     -0.54969706	     50.57867664	      1.65307175	      1.74865373	     53.93524510	      0.94134761	      5.76299303	    -24.48392282	     -7.23473095	     50.59595933	     -2.59644281	      6.84822769	     48.56235791	      0.84757304	      5.74731236	     -7.67016907	     -7.23473095	    -21.65574700	     -4.31843078	     -5.94492672	    -30.84404030	    -34.50296945	    -47.56802010	    113.10890956	    105.82705672	     -7.37421316	    -15.59010789	    -11.05175283	     96.81047793	     95.52083101
      1.22000000	    -10.55418132	     -1.64619646	      1.57470118	     -0.38017168	      0.82109102	     -0.54895719	     55.78337706	      3.76326428	      0.90133137	     61.68402856	      1.07658939	      6.41694322	    -24.68245546	     -7.26354903	     55.08093873	     -4.18622438	      8.34797689	     56.21366745	      0.98111358	     11.13816891	     -7.73167244	     -7.26354903	    -22.24102899	     -2.48449195	     -5.73686011	    -25.23888043	    -35.54449130	    -42.48726253	    112.91955448	    106.48151863	     -3.66185655	    -14.59427240	    -11.26904295	     95.12691576	     95.01431569
      1.23000000	    -10.43031417	     -3.02232226	      1.07757556	     -0.37819268	      0.80081577	     -0.54879851	     58.96283207	      4.88491754	     -0.31047643	     67.19199627	      1.17272157	      7.86446697	    -24.26168932	     -7.27708483	     58.63504542	     -4.92970872	      9.86886382	     62.53049558	      1.09136303	     12.69465634	     -9.24766540	     -7.27708483	    -23.83035419	     -1.19766976	     -5.29929252	    -19.97057927	    -35.74330457	    -37.68851690	    112.36655339	    106.48066869	      1.01797947	    -13.98302717	    -10.56226387	     92.54172738	     94.26127757
      1.24000000	    -10.53890720	     -4.23034130	      1.03351334	     -0.37565007	      0.78131512	     -0.54870213	     61.20447389	      5.42069401	     -1.82601684	     71.10356341	      1.24099129	     11.11616294	    -23.58851414	     -7.29508633	     62.36022187	     -5.18284181	     11.41269012	     68.40538550	      1.19389920	     14.01792113	     -9.90775199	     -7.29508633	    -25.27183324	     -0.10045387	     -6.69016296	    -12.81318967	    -36.10670775	    -30.08893112	    110.68892566	    109.24913384	      3.96612298	    -13.74756798	    -11.83298529	     91.33850834	     94.55765301
